<svg width="18" height="17" viewBox="0 0 18 17" fill="none" xmlns="http://www.w3.org/2000/svg">
<path d="M7.05933 1.22514L5.55336 4.23266C5.35043 4.64859 4.80571 5.04319 4.34645 5.12851L1.62289 5.57644C-0.118048 5.8644 -0.523911 7.12291 0.725721 8.38138L2.85116 10.5037C3.20362 10.8556 3.40655 11.5489 3.28907 12.0501L2.68027 14.6737C2.19965 16.7427 3.31043 17.5532 5.13681 16.4654L7.68948 14.951C8.14875 14.6737 8.91775 14.6737 9.37702 14.951L11.9297 16.4654C13.7561 17.5426 14.8669 16.7427 14.3863 14.6737L13.7775 12.0501C13.6814 11.5382 13.8843 10.845 14.2368 10.493L16.3622 8.37071C17.6118 7.12291 17.206 5.8644 15.465 5.56578L12.7414 5.11785C12.2821 5.04319 11.7374 4.63793 11.5345 4.22199L10.0285 1.21448C9.20613 -0.406598 7.88173 -0.406598 7.05933 1.22514Z" fill="#292D32"/>
</svg>
