<svg width="52" height="30" viewBox="0 0 52 30" fill="none" xmlns="http://www.w3.org/2000/svg">
<path d="M36.6005 30H32.9765C31.9925 30 31.1765 29.184 31.1765 28.2C31.1765 27.216 31.9925 26.4 32.9765 26.4H36.6005C42.8885 26.4 48.0005 21.288 48.0005 15C48.0005 8.712 42.8885 3.6 36.6005 3.6H33.0005C32.0165 3.6 31.2005 2.784 31.2005 1.8C31.2005 0.816 31.9925 0 33.0005 0H36.6005C44.8805 0 51.6005 6.72 51.6005 15C51.6005 23.28 44.8805 30 36.6005 30Z" fill="white"/>
<path d="M18.6 30H15C6.72 30 0 23.28 0 15C0 6.72 6.72 0 15 0H18.6C19.584 0 20.4 0.816 20.4 1.8C20.4 2.784 19.584 3.6 18.6 3.6H15C8.712 3.6 3.6 8.712 3.6 15C3.6 21.288 8.712 26.4 15 26.4H18.6C19.584 26.4 20.4 27.216 20.4 28.2C20.4 29.184 19.584 30 18.6 30Z" fill="white"/>
<path d="M35.3999 16.8002H16.1999C15.2159 16.8002 14.3999 15.9842 14.3999 15.0002C14.3999 14.0162 15.2159 13.2002 16.1999 13.2002H35.3999C36.3839 13.2002 37.1999 14.0162 37.1999 15.0002C37.1999 15.9842 36.3839 16.8002 35.3999 16.8002Z" fill="white"/>
</svg>
